<?xml version="1.0" standalone="no"?>
<!DOCTYPE svg PUBLIC "-//W3C//DTD SVG 20010904//EN"
 "http://www.w3.org/TR/2001/REC-SVG-20010904/DTD/svg10.dtd">
<svg version="1.0" xmlns="http://www.w3.org/2000/svg"
 width="512.000000pt" height="512.000000pt" viewBox="0 0 512.000000 512.000000"
 preserveAspectRatio="xMidYMid meet">

<g transform="translate(0.000000,512.000000) scale(0.100000,-0.100000)"
fill="#000000" stroke="none">
<path d="M2361 5110 c-442 -37 -865 -184 -1222 -426 -164 -110 -242 -175 -394
-328 -401 -404 -644 -898 -721 -1466 -21 -152 -23 -480 -5 -625 51 -406 189
-783 406 -1110 714 -1078 2103 -1457 3261 -890 603 296 1067 820 1289 1457
268 768 149 1633 -316 2298 -412 588 -1057 982 -1759 1074 -148 19 -406 27
-539 16z m540 -1507 c58 -26 123 -84 154 -137 45 -78 46 -114 43 -941 -4 -882
1 -829 -84 -924 -67 -74 -138 -106 -239 -106 -126 0 -155 18 -385 238 l-195
186 -125 1 c-226 1 -349 49 -490 190 -135 135 -190 265 -190 450 0 185 55 315
190 450 141 141 264 189 490 190 l125 1 193 184 c107 102 208 193 225 202 91
47 203 53 288 16z m628 -537 c15 -8 46 -42 69 -75 168 -239 181 -560 31 -813
-71 -120 -125 -155 -191 -124 -44 21 -72 68 -65 109 3 18 26 63 51 100 123
184 122 412 -4 600 -63 94 -66 133 -16 183 38 38 77 44 125 20z m-264 -196
c45 0 128 -142 146 -249 18 -113 -27 -265 -100 -339 -43 -42 -104 -45 -150 -6
-49 41 -50 80 -5 161 32 56 39 78 39 123 0 45 -7 67 -39 123 -30 55 -37 75
-32 101 9 49 77 103 114 90 8 -2 20 -4 27 -4z"/>
<path d="M2725 3398 c-11 -6 -100 -88 -197 -181 l-178 -170 0 -487 0 -487 178
-170 c97 -93 187 -175 199 -181 38 -21 80 -14 115 17 l33 29 0 792 0 792 -33
29 c-35 31 -80 38 -117 17z"/>
<path d="M1905 2966 c-200 -63 -331 -270 -296 -468 25 -142 109 -256 236 -319
63 -31 78 -34 177 -38 l108 -3 0 421 0 421 -92 -1 c-51 0 -111 -6 -133 -13z"/>
</g>
</svg>
